# Blender v2.78 (sub 0) OBJ File: ''
# www.blender.org
mtllib gun1.mtl
o gun
v 0.100000 -0.070642 -0.251363
v 0.000000 -0.070642 -0.251363
v 0.100000 0.069358 -0.251363
v 0.000000 0.069358 -0.251363
v 0.000000 -0.070642 0.248637
v 0.100000 -0.070642 0.248637
v 0.000000 0.069358 0.248637
v 0.100000 0.069358 0.248637
v 0.080000 -0.030642 -0.251363
v 0.077716 -0.019162 -0.251363
v 0.050000 -0.030642 -0.251363
v 0.071213 -0.009429 -0.251363
v 0.061481 -0.002926 -0.251363
v 0.050000 -0.000642 -0.251363
v 0.038519 -0.002926 -0.251363
v 0.028787 -0.009429 -0.251363
v 0.022284 -0.019162 -0.251363
v 0.020000 -0.030642 -0.251363
v 0.022284 -0.042123 -0.251363
v 0.028787 -0.051856 -0.251363
v 0.038519 -0.058359 -0.251363
v 0.050000 -0.060642 -0.251363
v 0.061481 -0.058359 -0.251363
v 0.071213 -0.051856 -0.251363
v 0.077716 -0.042123 -0.251363
v 0.080000 -0.030642 -1.251363
v 0.077716 -0.042123 -1.251363
v 0.050000 -0.030642 -1.251363
v 0.071213 -0.051856 -1.251363
v 0.061481 -0.058359 -1.251363
v 0.050000 -0.060642 -1.251363
v 0.038519 -0.058359 -1.251363
v 0.028787 -0.051856 -1.251363
v 0.022284 -0.042123 -1.251363
v 0.020000 -0.030642 -1.251363
v 0.022284 -0.019162 -1.251363
v 0.028787 -0.009429 -1.251363
v 0.038519 -0.002926 -1.251363
v 0.050000 -0.000642 -1.251363
v 0.061481 -0.002926 -1.251363
v 0.071213 -0.009429 -1.251363
v 0.077716 -0.019162 -1.251363
v 0.050000 0.009358 -0.251363
v 0.057654 0.010880 -0.251363
v 0.050000 0.029358 -0.251363
v 0.064142 0.015216 -0.251363
v 0.068478 0.021704 -0.251363
v 0.070000 0.029358 -0.251363
v 0.068478 0.037011 -0.251363
v 0.064142 0.043500 -0.251363
v 0.057654 0.047835 -0.251363
v 0.050000 0.049358 -0.251363
v 0.042346 0.047835 -0.251363
v 0.035858 0.043500 -0.251363
v 0.031522 0.037011 -0.251363
v 0.030000 0.029358 -0.251363
v 0.031522 0.021704 -0.251363
v 0.035858 0.015216 -0.251363
v 0.042346 0.010880 -0.251363
v 0.050000 0.009358 -0.751363
v 0.042346 0.010880 -0.751363
v 0.050000 0.029358 -0.751363
v 0.035858 0.015216 -0.751363
v 0.031522 0.021704 -0.751363
v 0.030000 0.029358 -0.751363
v 0.031522 0.037011 -0.751363
v 0.035858 0.043500 -0.751363
v 0.042346 0.047835 -0.751363
v 0.050000 0.049358 -0.751363
v 0.057654 0.047835 -0.751363
v 0.064142 0.043500 -0.751363
v 0.068478 0.037011 -0.751363
v 0.070000 0.029358 -0.751363
v 0.068478 0.021704 -0.751363
v 0.064142 0.015216 -0.751363
v 0.057654 0.010880 -0.751363
v 0.010011 -0.032198 -0.771363
v 0.077742 -0.059485 -0.771363
v 0.064954 -0.067762 -0.771363
v 0.050000 -0.070661 -0.771363
v 0.020406 0.024442 -0.771363
v 0.020730 0.035935 -0.771363
v 0.025354 0.046462 -0.771363
v 0.020101 -0.004042 -0.771363
v 0.032207 0.005204 -0.771363
v 0.067793 0.005204 -0.771363
v 0.079899 -0.004042 -0.771363
v 0.035046 -0.067762 -0.771363
v 0.079270 0.035935 -0.771363
v 0.079594 0.024442 -0.771363
v 0.075572 0.013670 -0.771363
v 0.044251 0.058802 -0.771363
v 0.024428 0.013670 -0.771363
v 0.089989 -0.032198 -0.771363
v 0.012327 -0.017142 -0.771363
v 0.086510 -0.047028 -0.771363
v 0.066402 0.054477 -0.771363
v 0.074646 0.046462 -0.771363
v 0.033598 0.054477 -0.771363
v 0.022258 -0.059485 -0.771363
v 0.013490 -0.047028 -0.771363
v 0.055749 0.058802 -0.771363
v 0.087673 -0.017142 -0.771363
v 0.020101 -0.004042 -0.751363
v 0.032207 0.005204 -0.751363
v 0.012327 -0.017142 -0.751363
v 0.010011 -0.032198 -0.751363
v 0.013490 -0.047028 -0.751363
v 0.022258 -0.059485 -0.751363
v 0.035046 -0.067762 -0.751363
v 0.050000 -0.070661 -0.751363
v 0.064954 -0.067762 -0.751363
v 0.077742 -0.059485 -0.751363
v 0.086510 -0.047028 -0.751363
v 0.089989 -0.032198 -0.751363
v 0.087673 -0.017142 -0.751363
v 0.079899 -0.004042 -0.751363
v 0.067793 0.005204 -0.751363
v 0.024428 0.013670 -0.751363
v 0.020406 0.024442 -0.751363
v 0.020730 0.035935 -0.751363
v 0.025354 0.046462 -0.751363
v 0.033598 0.054477 -0.751363
v 0.044251 0.058802 -0.751363
v 0.055749 0.058802 -0.751363
v 0.066402 0.054477 -0.751363
v 0.074646 0.046462 -0.751363
v 0.079270 0.035935 -0.751363
v 0.079594 0.024442 -0.751363
v 0.075572 0.013670 -0.751363
vt 0.3146 0.6400
vt 0.1834 0.6400
vt 0.3146 0.5000
vt 0.1834 0.5000
vt 0.0000 0.5000
vt 0.1312 0.5000
vt 0.0000 0.6400
vt 0.1312 0.6400
vt 0.6292 0.5000
vt 0.4980 0.5000
vt 0.6292 0.0000
vt 0.4980 0.0000
vt 0.0000 0.0000
vt 0.1834 0.0000
vt 0.0000 0.5000
vt 0.1834 0.5000
vt 0.4980 0.5000
vt 0.3669 0.5000
vt 0.4980 0.0000
vt 0.3669 0.0000
vt 0.1834 0.0000
vt 0.3669 0.0000
vt 0.1834 0.5000
vt 0.3669 0.5000
vt 0.5220 0.5353
vt 0.5220 0.5236
vt 0.5606 0.5294
vt 0.5279 0.5128
vt 0.5387 0.5045
vt 0.5529 0.5000
vt 0.5683 0.5000
vt 0.5825 0.5045
vt 0.5933 0.5128
vt 0.5992 0.5236
vt 0.5992 0.5353
vt 0.5933 0.5461
vt 0.5825 0.5544
vt 0.5683 0.5588
vt 0.5529 0.5588
vt 0.5388 0.5544
vt 0.5279 0.5461
vt 0.5992 0.5824
vt 0.5992 0.5941
vt 0.5606 0.5883
vt 0.5933 0.6049
vt 0.5825 0.6132
vt 0.5683 0.6177
vt 0.5529 0.6177
vt 0.5388 0.6132
vt 0.5279 0.6049
vt 0.5220 0.5941
vt 0.5220 0.5824
vt 0.5279 0.5716
vt 0.5387 0.5633
vt 0.5529 0.5588
vt 0.5683 0.5588
vt 0.5825 0.5633
vt 0.5933 0.5716
vt 0.8244 0.0000
vt 0.8393 0.0000
vt 0.8244 1.0000
vt 0.8393 1.0000
vt 0.8517 0.0000
vt 0.8517 1.0000
vt 0.6849 0.0000
vt 0.6976 0.0000
vt 0.6849 1.0000
vt 0.6976 1.0000
vt 0.7127 0.0000
vt 0.7127 1.0000
vt 0.7277 0.0000
vt 0.7277 1.0000
vt 0.7405 0.0000
vt 0.7405 1.0000
vt 0.7961 1.0000
vt 0.7838 1.0000
vt 0.7961 0.0000
vt 0.7838 0.0000
vt 0.7689 1.0000
vt 0.7689 0.0000
vt 0.7537 1.0000
vt 0.7537 0.0000
vt 0.7405 1.0000
vt 0.7405 0.0000
vt 0.6849 1.0000
vt 0.6721 1.0000
vt 0.6849 0.0000
vt 0.6721 0.0000
vt 0.6570 1.0000
vt 0.6570 0.0000
vt 0.6420 1.0000
vt 0.6420 0.0000
vt 0.6292 1.0000
vt 0.6292 0.0000
vt 0.7961 0.0000
vt 0.8093 0.0000
vt 0.7961 1.0000
vt 0.8093 1.0000
vt 0.1715 0.5755
vt 0.1620 0.5785
vt 0.1569 0.5588
vt 0.1518 0.5785
vt 0.1423 0.5755
vt 0.1351 0.5700
vt 0.1312 0.5628
vt 0.1312 0.5549
vt 0.1351 0.5477
vt 0.1423 0.5422
vt 0.1518 0.5392
vt 0.1620 0.5392
vt 0.1715 0.5422
vt 0.1787 0.5477
vt 0.1826 0.5549
vt 0.1826 0.5627
vt 0.1787 0.5700
vt 0.1715 0.5362
vt 0.1620 0.5392
vt 0.1569 0.5196
vt 0.1518 0.5392
vt 0.1423 0.5362
vt 0.1351 0.5307
vt 0.1312 0.5235
vt 0.1312 0.5157
vt 0.1351 0.5085
vt 0.1423 0.5030
vt 0.1518 0.5000
vt 0.1620 0.5000
vt 0.1715 0.5030
vt 0.1787 0.5085
vt 0.1826 0.5157
vt 0.1826 0.5235
vt 0.1787 0.5307
vt 0.9073 0.0000
vt 0.9174 0.0000
vt 0.9073 0.5000
vt 0.9174 0.5000
vt 0.9259 0.0000
vt 0.9259 0.5000
vt 1.0000 0.5000
vt 0.9918 0.5000
vt 1.0000 0.0000
vt 0.9918 0.0000
vt 0.9818 0.5000
vt 0.9818 0.0000
vt 0.9717 0.5000
vt 0.9717 0.0000
vt 0.9629 0.5000
vt 0.9629 0.0000
vt 0.8517 0.0000
vt 0.8602 0.0000
vt 0.8517 0.5000
vt 0.8602 0.5000
vt 0.8702 0.0000
vt 0.8702 0.5000
vt 0.8803 0.0000
vt 0.8803 0.5000
vt 0.8888 0.0000
vt 0.8888 0.5000
vt 0.9629 0.5000
vt 0.9542 0.5000
vt 0.9629 0.0000
vt 0.9542 0.0000
vt 0.9440 0.5000
vt 0.9440 0.0000
vt 0.9341 0.5000
vt 0.9341 0.0000
vt 0.9259 0.5000
vt 0.9259 0.0000
vt 0.8888 0.0000
vt 0.8973 0.0000
vt 0.8888 0.5000
vt 0.8973 0.5000
vt 0.5219 0.5317
vt 0.4286 0.5154
vt 0.4434 0.5052
vt 0.4622 0.5000
vt 0.5201 0.5893
vt 0.5220 0.6007
vt 0.5182 0.6118
vt 0.5146 0.5611
vt 0.5008 0.5721
vt 0.4547 0.5777
vt 0.4372 0.5705
vt 0.4822 0.5005
vt 0.4462 0.6099
vt 0.4434 0.5986
vt 0.4464 0.5873
vt 0.4962 0.6270
vt 0.5127 0.5793
vt 0.4183 0.5442
vt 0.5220 0.5470
vt 0.4198 0.5291
vt 0.4666 0.6262
vt 0.4543 0.6195
vt 0.5091 0.6210
vt 0.5005 0.5067
vt 0.5144 0.5176
vt 0.4813 0.6288
vt 0.4244 0.5588
vt 0.1733 0.5985
vt 0.1733 0.6185
vt 0.1574 0.5985
vt 0.1574 0.6185
vt 0.6254 0.5689
vt 0.5992 0.5689
vt 0.6254 0.5555
vt 0.5992 0.5555
vt 0.6254 0.5841
vt 0.5992 0.5841
vt 0.6254 0.5987
vt 0.5992 0.5987
vt 0.6254 0.6108
vt 0.5992 0.6108
vt 0.5992 0.5427
vt 0.6254 0.5427
vt 0.5992 0.5555
vt 0.6254 0.5555
vt 0.5992 0.5277
vt 0.6254 0.5277
vt 0.5992 0.5128
vt 0.6254 0.5128
vt 0.5992 0.5000
vt 0.6254 0.5000
vt 0.1312 0.6217
vt 0.1574 0.6217
vt 0.1312 0.6337
vt 0.1574 0.6337
vt 0.1312 0.6071
vt 0.1574 0.6071
vt 0.1312 0.5919
vt 0.1574 0.5919
vt 0.1312 0.5785
vt 0.1574 0.5785
vt 0.1733 0.5785
vt 0.1733 0.5985
vt 0.1574 0.5785
vt 0.1574 0.5985
vt 0.5483 0.6258
vt 0.5220 0.6258
vt 0.5483 0.6177
vt 0.5220 0.6177
vt 0.5483 0.6363
vt 0.5220 0.6363
vt 0.5483 0.6478
vt 0.5220 0.6478
vt 0.5483 0.6586
vt 0.5220 0.6586
vt 0.5483 0.6670
vt 0.5220 0.6670
vt 0.5745 0.6283
vt 0.5483 0.6283
vt 0.5483 0.6177
vt 0.5745 0.6177
vt 0.5745 0.6398
vt 0.5483 0.6398
vt 0.5745 0.6505
vt 0.5483 0.6505
vt 0.6254 0.6192
vt 0.5992 0.6192
vt 0.6254 0.6108
vt 0.5992 0.6108
vt 0.6254 0.6299
vt 0.5992 0.6299
vt 0.6254 0.6414
vt 0.5992 0.6414
vt 0.6254 0.6520
vt 0.5992 0.6520
vt 0.6254 0.6600
vt 0.5992 0.6600
vt 0.4164 0.5395
vt 0.3925 0.5018
vt 0.4054 0.5077
vt 0.4182 0.5970
vt 0.3785 0.6282
vt 0.3585 0.6288
vt 0.4109 0.5676
vt 0.3207 0.5700
vt 0.3334 0.5583
vt 0.4145 0.5169
vt 0.4183 0.5281
vt 0.3971 0.5566
vt 0.3427 0.5415
vt 0.3397 0.5302
vt 0.3425 0.5189
vt 0.4107 0.6111
vt 0.3968 0.6221
vt 0.3146 0.5845
vt 0.3629 0.5026
vt 0.3776 0.5000
vt 0.3510 0.5511
vt 0.3249 0.6134
vt 0.4183 0.5818
vt 0.3161 0.5997
vt 0.3506 0.5092
vt 0.3397 0.6236
vt 0.4090 0.5495
vn 0.0000 0.0000 -1.0000
vn 0.0000 -0.0000 1.0000
vn 0.0000 -1.0000 -0.0000
vn 1.0000 0.0000 0.0000
vn 0.0000 1.0000 0.0000
vn -1.0000 0.0000 0.0000
vn 0.9239 -0.3827 -0.0000
vn 0.7071 -0.7071 -0.0000
vn 0.3827 -0.9239 -0.0000
vn -0.3827 -0.9239 -0.0000
vn -0.7071 -0.7071 -0.0000
vn -0.9239 -0.3827 -0.0000
vn -0.9239 0.3827 0.0000
vn -0.7071 0.7071 0.0000
vn -0.3827 0.9239 0.0000
vn 0.3827 0.9239 0.0000
vn 0.7071 0.7071 0.0000
vn 0.9239 0.3827 0.0000
vn -0.7471 0.6647 0.0000
vn -0.6070 0.7947 0.0000
vn -0.9414 0.3374 0.0000
vn -0.9992 -0.0389 -0.0000
vn -0.9123 -0.4095 -0.0000
vn -0.6932 -0.7207 -0.0000
vn -0.3737 -0.9276 0.0000
vn 0.3737 -0.9276 -0.0000
vn 0.6932 -0.7207 -0.0000
vn 0.9123 -0.4095 -0.0000
vn 0.9992 -0.0389 0.0000
vn 0.9414 0.3374 0.0000
vn 0.7471 0.6647 0.0000
vn 0.6070 0.7947 0.0000
vn -0.8524 -0.5229 -0.0000
vn -0.7364 -0.6766 -0.0000
vn -0.7363 -0.6766 -0.0000
vn -0.9865 -0.1638 0.0000
vn -0.9757 0.2192 0.0000
vn -0.8215 0.5701 0.0000
vn -0.5468 0.8373 0.0000
vn -0.1916 0.9815 0.0000
vn 0.1916 0.9815 0.0000
vn 0.5468 0.8373 0.0000
vn 0.8215 0.5701 0.0000
vn 0.9757 0.2192 0.0000
vn 0.9865 -0.1638 -0.0000
vn 0.8524 -0.5229 -0.0000
vn 0.7364 -0.6766 -0.0000
usemtl model_gun.dgn_3D_Metric_Design_255_255_255_vis
s 1
f 1/1/1 2/2/1 3/3/1
f 3/3/1 2/2/1 4/4/1
f 5/5/2 6/6/2 7/7/2
f 7/7/2 6/6/2 8/8/2
f 2/9/3 1/10/3 5/11/3
f 5/11/3 1/10/3 6/12/3
f 1/13/4 3/14/4 6/15/4
f 6/15/4 3/14/4 8/16/4
f 3/17/5 4/18/5 8/19/5
f 8/19/5 4/18/5 7/20/5
f 4/21/6 2/22/6 7/23/6
f 7/23/6 2/22/6 5/24/6
f 9/25/2 10/26/2 11/27/2
f 10/26/2 12/28/2 11/27/2
f 12/28/2 13/29/2 11/27/2
f 13/29/2 14/30/2 11/27/2
f 14/30/2 15/31/2 11/27/2
f 15/31/2 16/32/2 11/27/2
f 16/32/2 17/33/2 11/27/2
f 17/33/2 18/34/2 11/27/2
f 18/34/2 19/35/2 11/27/2
f 19/35/2 20/36/2 11/27/2
f 20/36/2 21/37/2 11/27/2
f 21/37/2 22/38/2 11/27/2
f 22/38/2 23/39/2 11/27/2
f 23/39/2 24/40/2 11/27/2
f 24/40/2 25/41/2 11/27/2
f 25/41/2 9/25/2 11/27/2
f 26/42/1 27/43/1 28/44/1
f 27/43/1 29/45/1 28/44/1
f 29/45/1 30/46/1 28/44/1
f 30/46/1 31/47/1 28/44/1
f 31/47/1 32/48/1 28/44/1
f 32/48/1 33/49/1 28/44/1
f 33/49/1 34/50/1 28/44/1
f 34/50/1 35/51/1 28/44/1
f 35/51/1 36/52/1 28/44/1
f 36/52/1 37/53/1 28/44/1
f 37/53/1 38/54/1 28/44/1
f 38/54/1 39/55/1 28/44/1
f 39/55/1 40/56/1 28/44/1
f 40/56/1 41/57/1 28/44/1
f 41/57/1 42/58/1 28/44/1
f 42/58/1 26/42/1 28/44/1
f 9/59/4 25/60/7 26/61/4
f 26/61/4 25/60/7 27/62/7
f 25/60/7 24/63/8 27/62/7
f 27/62/7 24/63/8 29/64/8
f 24/65/8 23/66/9 29/67/8
f 29/67/8 23/66/9 30/68/9
f 23/66/9 22/69/3 31/70/3
f 23/66/9 31/70/3 30/68/9
f 22/69/3 21/71/10 32/72/10
f 22/69/3 32/72/10 31/70/3
f 21/71/10 20/73/11 32/72/10
f 32/72/10 20/73/11 33/74/11
f 20/75/11 19/76/12 33/77/11
f 33/77/11 19/76/12 34/78/12
f 19/76/12 18/79/6 34/78/12
f 34/78/12 18/79/6 35/80/6
f 18/79/6 17/81/13 35/80/6
f 35/80/6 17/81/13 36/82/13
f 17/81/13 16/83/14 36/82/13
f 36/82/13 16/83/14 37/84/14
f 16/85/14 15/86/15 37/87/14
f 37/87/14 15/86/15 38/88/15
f 15/86/15 14/89/5 38/88/15
f 38/88/15 14/89/5 39/90/5
f 14/89/5 13/91/16 39/90/5
f 39/90/5 13/91/16 40/92/16
f 13/91/16 12/93/17 40/92/16
f 40/92/16 12/93/17 41/94/17
f 12/95/17 10/96/18 41/97/17
f 41/97/17 10/96/18 42/98/18
f 10/96/18 9/59/4 42/98/18
f 42/98/18 9/59/4 26/61/4
f 43/99/2 44/100/2 45/101/2
f 44/100/2 46/102/2 45/101/2
f 46/102/2 47/103/2 45/101/2
f 47/103/2 48/104/2 45/101/2
f 48/104/2 49/105/2 45/101/2
f 49/105/2 50/106/2 45/101/2
f 50/106/2 51/107/2 45/101/2
f 51/107/2 52/108/2 45/101/2
f 52/108/2 53/109/2 45/101/2
f 53/109/2 54/110/2 45/101/2
f 54/110/2 55/111/2 45/101/2
f 55/111/2 56/112/2 45/101/2
f 56/112/2 57/113/2 45/101/2
f 57/113/2 58/114/2 45/101/2
f 58/114/2 59/115/2 45/101/2
f 59/115/2 43/99/2 45/101/2
f 60/116/1 61/117/1 62/118/1
f 61/117/1 63/119/1 62/118/1
f 63/119/1 64/120/1 62/118/1
f 64/120/1 65/121/1 62/118/1
f 65/121/1 66/122/1 62/118/1
f 66/122/1 67/123/1 62/118/1
f 67/123/1 68/124/1 62/118/1
f 68/124/1 69/125/1 62/118/1
f 69/125/1 70/126/1 62/118/1
f 70/126/1 71/127/1 62/118/1
f 71/127/1 72/128/1 62/118/1
f 72/128/1 73/129/1 62/118/1
f 73/129/1 74/130/1 62/118/1
f 74/130/1 75/131/1 62/118/1
f 75/131/1 76/132/1 62/118/1
f 76/132/1 60/116/1 62/118/1
f 43/133/3 59/134/10 60/135/3
f 60/135/3 59/134/10 61/136/10
f 59/134/10 58/137/11 61/136/10
f 61/136/10 58/137/11 63/138/11
f 58/139/11 57/140/12 63/141/11
f 63/141/11 57/140/12 64/142/12
f 57/140/12 56/143/6 64/142/12
f 64/142/12 56/143/6 65/144/6
f 56/143/6 55/145/13 65/144/6
f 65/144/6 55/145/13 66/146/13
f 55/145/13 54/147/14 66/146/13
f 66/146/13 54/147/14 67/148/14
f 54/149/14 53/150/15 67/151/14
f 67/151/14 53/150/15 68/152/15
f 53/150/15 52/153/5 68/152/15
f 68/152/15 52/153/5 69/154/5
f 52/153/5 51/155/16 69/154/5
f 69/154/5 51/155/16 70/156/16
f 51/155/16 50/157/17 70/156/16
f 70/156/16 50/157/17 71/158/17
f 50/159/17 49/160/18 71/161/17
f 71/161/17 49/160/18 72/162/18
f 49/160/18 48/163/4 72/162/18
f 72/162/18 48/163/4 73/164/4
f 48/163/4 47/165/7 73/164/4
f 73/164/4 47/165/7 74/166/7
f 47/165/7 46/167/8 74/166/7
f 74/166/7 46/167/8 75/168/8
f 46/169/8 44/170/9 75/171/8
f 75/171/8 44/170/9 76/172/9
f 44/170/9 43/133/3 76/172/9
f 76/172/9 43/133/3 60/135/3
f 77/173/1 78/174/1 79/175/1
f 77/173/1 79/175/1 80/176/1
f 81/177/1 82/178/1 83/179/1
f 84/180/1 85/181/1 86/182/1
f 84/180/1 86/182/1 87/183/1
f 80/176/1 88/184/1 77/173/1
f 85/181/1 89/185/1 90/186/1
f 85/181/1 90/186/1 91/187/1
f 92/188/1 85/181/1 93/189/1
f 92/188/1 93/189/1 81/177/1
f 94/190/1 77/173/1 95/191/1
f 94/190/1 95/191/1 84/180/1
f 77/173/1 94/190/1 96/192/1
f 77/173/1 96/192/1 78/174/1
f 85/181/1 97/193/1 98/194/1
f 85/181/1 98/194/1 89/185/1
f 83/179/1 99/195/1 81/177/1
f 81/177/1 99/195/1 92/188/1
f 88/184/1 100/196/1 101/197/1
f 88/184/1 101/197/1 77/173/1
f 92/188/1 102/198/1 85/181/1
f 85/181/1 102/198/1 97/193/1
f 91/187/1 86/182/1 85/181/1
f 87/183/1 103/199/1 84/180/1
f 84/180/1 103/199/1 94/190/1
f 84/200/19 104/201/19 85/202/20
f 85/202/20 104/201/19 105/203/20
f 95/204/21 106/205/21 84/206/19
f 84/206/19 106/205/21 104/207/19
f 77/208/22 107/209/22 95/204/21
f 95/204/21 107/209/22 106/205/21
f 101/210/23 108/211/23 77/208/22
f 77/208/22 108/211/23 107/209/22
f 100/212/24 109/213/24 101/210/23
f 101/210/23 109/213/24 108/211/23
f 88/214/25 110/215/25 100/216/24
f 100/216/24 110/215/25 109/217/24
f 80/218/3 111/219/3 88/214/25
f 88/214/25 111/219/3 110/215/25
f 79/220/26 112/221/26 80/218/3
f 80/218/3 112/221/26 111/219/3
f 78/222/27 113/223/27 79/220/26
f 79/220/26 113/223/27 112/221/26
f 96/224/28 114/225/28 78/226/27
f 78/226/27 114/225/28 113/227/27
f 94/228/29 115/229/29 96/224/28
f 96/224/28 115/229/29 114/225/28
f 103/230/30 116/231/30 94/228/29
f 94/228/29 116/231/30 115/229/29
f 87/232/31 117/233/31 103/230/30
f 103/230/30 117/233/31 116/231/30
f 86/234/32 118/235/32 87/236/31
f 87/236/31 118/235/32 117/237/31
f 119/238/33 93/239/33 105/240/34
f 105/240/34 93/239/33 85/241/35
f 120/242/36 81/243/36 119/238/33
f 119/238/33 81/243/36 93/239/33
f 121/244/37 82/245/37 120/242/36
f 120/242/36 82/245/37 81/243/36
f 122/246/38 83/247/38 121/244/37
f 121/244/37 83/247/38 82/245/37
f 123/248/39 99/249/39 122/246/38
f 122/246/38 99/249/39 83/247/38
f 124/250/40 92/251/40 99/252/39
f 124/250/40 99/252/39 123/253/39
f 125/254/41 102/255/41 124/250/40
f 124/250/40 102/255/41 92/251/40
f 126/256/42 97/257/42 125/254/41
f 125/254/41 97/257/42 102/255/41
f 127/258/43 98/259/43 126/260/42
f 126/260/42 98/259/43 97/261/42
f 128/262/44 89/263/44 127/258/43
f 127/258/43 89/263/44 98/259/43
f 129/264/45 90/265/45 128/262/44
f 128/262/44 90/265/45 89/263/44
f 130/266/46 91/267/46 129/264/45
f 129/264/45 91/267/46 90/265/45
f 118/268/47 86/269/47 130/266/46
f 130/266/46 86/269/47 91/267/46
f 120/270/2 124/271/2 123/272/2
f 107/273/2 110/274/2 111/275/2
f 104/276/2 116/277/2 117/278/2
f 123/272/2 122/279/2 120/270/2
f 120/270/2 122/279/2 121/280/2
f 105/281/2 130/282/2 129/283/2
f 105/281/2 129/283/2 128/284/2
f 107/273/2 108/285/2 110/274/2
f 110/274/2 108/285/2 109/286/2
f 104/276/2 115/287/2 116/277/2
f 105/281/2 126/288/2 125/289/2
f 105/281/2 125/289/2 124/271/2
f 105/281/2 118/290/2 130/282/2
f 113/291/2 104/276/2 106/292/2
f 113/291/2 106/292/2 107/273/2
f 104/276/2 113/291/2 114/293/2
f 104/276/2 114/293/2 115/287/2
f 128/284/2 127/294/2 105/281/2
f 105/281/2 127/294/2 126/288/2
f 117/278/2 118/290/2 104/276/2
f 104/276/2 118/290/2 105/281/2
f 111/275/2 112/295/2 107/273/2
f 107/273/2 112/295/2 113/291/2
f 120/270/2 119/296/2 124/271/2
f 124/271/2 119/296/2 105/281/2
