# Blender v2.81 (sub 16) OBJ File: ''
# www.blender.org
mtllib pyramid.mtl
o pyramid
v -115.000000 -0.000038 115.000000
v 0.000000 146.000000 0.000048
v -115.000000 0.000038 -115.000000
v 115.000000 -0.000038 115.000000
v -115.000000 -0.000038 115.000000
v 0.000000 146.000000 0.000048
v -115.000000 0.000038 -115.000000
v 115.000000 -0.000038 115.000000
v -115.000000 -0.000038 115.000000
v 0.000000 146.000000 0.000048
v -115.000000 0.000038 -115.000000
v 115.000000 -0.000038 115.000000
v 115.000000 0.000038 -115.000000
v 0.000000 146.000000 0.000048
v 115.000000 -0.000038 115.000000
v -115.000000 0.000038 -115.000000
v -115.000000 -0.000038 115.000000
v -115.000000 -0.000038 115.000000
v 115.000000 -0.000038 115.000000
v -115.000000 0.000038 -115.000000
v 115.000000 -0.000038 115.000000
v -115.000000 0.000038 -115.000000
v -115.000000 -0.000038 115.000000
v 115.000000 0.000038 -115.000000
v 0.000000 146.000000 0.000048
v -115.000000 -0.000038 115.000000
v 115.000000 -0.000038 115.000000
v 115.000000 -0.000038 115.000000
v -115.000000 0.000038 -115.000000
v -115.000000 -0.000038 115.000000
v 115.000000 0.000038 -115.000000
v 115.000000 -0.000038 115.000000
v -115.000000 0.000038 -115.000000
v -115.000000 -0.000038 115.000000
v 115.000000 0.000038 -115.000000
vt 0.000000 0.000000
vt 1.000000 0.000000
vt 1.000000 1.000000
vt 0.000000 0.000000
vt 1.000000 0.000000
vt 1.000000 1.000000
vt 0.000000 0.000000
vt 1.000000 0.000000
vt 1.000000 1.000000
vt 0.000000 0.000000
vt 1.000000 0.000000
vt 1.000000 1.000000
vt 0.000000 0.000000
vt 1.000000 0.000000
vt 1.000000 1.000000
vt 0.000000 0.000000
vt 1.000000 0.000000
vt 1.000000 1.000000
vt 1.000000 0.000000
vt 0.500000 1.000000
vt 0.000000 0.000000
vt 0.000000 0.000000
vt 1.000000 0.000000
vt 1.000000 0.000000
vt 0.000000 0.000000
vt 0.000000 0.000000
vt 1.000000 1.000000
vt 0.000000 0.000000
vt 1.000000 0.000000
vt 1.000000 1.000000
vt 0.000000 0.000000
vt 1.000000 0.000000
vt 1.000000 1.000000
vt 0.000000 0.000000
vt 1.000000 0.000000
vt 1.000000 1.000000
vt 0.500000 1.000000
vt 0.000000 0.000000
vt 1.000000 0.000000
vt 0.000000 0.000000
vt 1.000000 0.000000
vt 1.000000 1.000000
vt 0.000000 0.000000
vt 1.000000 0.000000
vt 1.000000 1.000000
vt 1.000000 1.000000
vt 0.000000 0.000000
vt 0.000000 1.000000
vt 1.000000 0.000000
vn -0.7856 0.6188 0.0000
vn 0.0000 0.6188 0.7856
vn 0.7856 0.6188 0.0000
vn 0.0000 0.6188 -0.7856
vn 0.0000 1.0000 0.0000
usemtl New_Level_giza.dgn_3D_Metric_Design_255_255_255_vis
s 1
f 1/1/1 2/2/1 3/3/1
f 2/4/2 1/5/2 4/6/2
f 5/7/1 6/8/1 7/9/1
f 6/10/2 5/11/2 8/12/2
f 9/13/1 10/14/1 11/15/1
f 10/16/2 9/17/2 12/18/2
f 13/19/3 14/20/3 15/21/3
f 14/20/4 13/22/4 16/23/4
f 17/24/1 14/20/1 16/25/1
f 14/26/2 17/24/2 15/27/2
f 18/28/5 19/29/5 20/30/5
f 21/31/5 22/32/5 23/33/5
f 22/34/5 21/35/5 24/36/5
f 25/37/2 26/38/2 27/39/2
f 28/40/5 29/41/5 30/42/5
f 29/43/5 28/44/5 31/45/5
f 32/46/5 33/47/5 34/48/5
f 33/47/5 32/46/5 35/49/5
