# Blender v2.78 (sub 0) OBJ File: ''
# www.blender.org
mtllib untitled.mtl
o cube
v -500.000000 -0.000081 500.000000
v 500.000000 -0.000081 500.000000
v 500.000000 0.000081 -500.000000
v -500.000000 0.000081 -500.000000
v 500.000000 -1000.000061 499.999847
v -500.000000 -1000.000061 499.999847
v -500.000000 -999.999939 -500.000153
v 500.000000 -999.999939 -500.000153
vt 0.3333 0.3333
vt 0.3333 0.0000
vt 0.6667 0.0000
vt 0.6667 0.3333
vt 0.3333 0.3333
vt 0.3333 0.6667
vt 0.0000 0.6667
vt 0.0000 0.3333
vt 0.3333 0.6667
vt 0.3333 1.0000
vt 0.0000 1.0000
vt 0.0000 0.6667
vt 0.0000 0.0000
vt 0.3333 0.0000
vt 0.3333 0.3333
vt 0.0000 0.3333
vt 0.3333 0.3333
vt 0.6667 0.3333
vt 0.6667 0.6667
vt 0.3333 0.6667
vt 1.0000 0.0000
vt 1.0000 0.3333
vt 0.6667 0.3333
vt 0.6667 0.0000
vn 0.0000 1.0000 0.0000
vn 0.0000 -1.0000 -0.0000
vn 0.0000 -0.0000 1.0000
vn -1.0000 -0.0000 0.0000
vn 0.0000 0.0000 -1.0000
vn 1.0000 -0.0000 0.0000
usemtl Default_cube.dgn_3D_Metric_Design_255_255_255_vis
s 1
f 1/1/1 2/2/1 3/3/1
f 3/3/1 4/4/1 1/1/1
f 5/5/2 6/6/2 7/7/2
f 7/7/2 8/8/2 5/5/2
f 2/9/3 1/10/3 6/11/3
f 6/11/3 5/12/3 2/9/3
f 1/13/4 4/14/4 7/15/4
f 7/15/4 6/16/4 1/13/4
f 4/17/5 3/18/5 8/19/5
f 8/19/5 7/20/5 4/17/5
f 3/21/6 2/22/6 5/23/6
f 5/23/6 8/24/6 3/21/6
