# Blender v2.81 (sub 16) OBJ File: ''
# www.blender.org
mtllib terrain.mtl
o cube
v -500.000000 -0.000162 500.000000
v 500.000000 -0.000162 500.000000
v 500.000000 0.000162 -500.000000
v -500.000000 0.000162 -500.000000
v 500.000000 -1000.000122 499.999695
v -500.000000 -1000.000122 499.999695
v -500.000000 -999.999878 -500.000305
v 500.000000 -999.999878 -500.000305
vt 0.000000 0.000000
vt 1.000000 0.000000
vt 1.000000 1.000000
vt 0.000000 1.000000
vt 1.000000 0.000001
vt 0.000000 0.000001
vt 0.000000 1.000000
vt 1.000000 1.000000
vn 0.0000 1.0000 0.0000
vn 0.0000 -1.0000 -0.0000
vn 0.0000 -0.0000 1.0000
vn -1.0000 -0.0000 0.0000
vn 0.0000 0.0000 -1.0000
vn 1.0000 -0.0000 0.0000
usemtl Default_cube.dgn_3D_Metric_Design_255_255_255_vis
s 1
f 1/1/1 2/2/1 3/3/1
f 3/3/1 4/4/1 1/1/1
f 5/5/2 6/6/2 7/7/2
f 7/7/2 8/8/2 5/5/2
f 2/2/3 1/1/3 6/6/3
f 6/6/3 5/5/3 2/2/3
f 1/1/4 4/4/4 7/7/4
f 7/7/4 6/6/4 1/1/4
f 4/4/5 3/3/5 8/8/5
f 8/8/5 7/7/5 4/4/5
f 3/3/6 2/2/6 5/5/6
f 5/5/6 8/8/6 3/3/6
